<svg xmlns="http://www.w3.org/2000/svg" viewBox="0 0 312.758 36.14"><defs><style>.a{fill:#fff;}</style></defs><g transform="translate(-500.393 -95.25)"><path class="a" d="M8.729,32.471a11.069,11.069,0,0,0,1.286,5.921A4.6,4.6,0,0,0,14.2,40.4a4.525,4.525,0,0,0,4.14-1.993A11.228,11.228,0,0,0,19.6,32.471,10.894,10.894,0,0,0,18.33,26.6a4.606,4.606,0,0,0-4.175-1.958A4.591,4.591,0,0,0,10,26.586,10.884,10.884,0,0,0,8.729,32.471Zm18.235,0q0,6.44-3.4,10.073t-9.46,3.633a13.233,13.233,0,0,1-6.7-1.663A11.067,11.067,0,0,1,2.95,39.737a16.052,16.052,0,0,1-1.557-7.266q0-6.464,3.373-10.049t9.483-3.586a13.308,13.308,0,0,1,6.7,1.651,11.022,11.022,0,0,1,4.459,4.742A15.9,15.9,0,0,1,26.964,32.471ZM43.619,46.177Q31.3,46.177,31.3,32.66q0-6.723,3.35-10.273t9.6-3.55a18.3,18.3,0,0,1,8.209,1.793L50.342,26.2q-1.7-.684-3.161-1.121a10.185,10.185,0,0,0-2.925-.436q-5.614,0-5.614,7.973,0,7.738,5.614,7.738A12.8,12.8,0,0,0,48.1,39.8a13.884,13.884,0,0,0,3.539-1.734v6.157a11.6,11.6,0,0,1-3.527,1.533A19.833,19.833,0,0,1,43.619,46.177ZM68.672,23.955a4.564,4.564,0,0,0-3.586,1.451A6.715,6.715,0,0,0,63.6,29.523H73.7A6,6,0,0,0,72.3,25.406,4.712,4.712,0,0,0,68.672,23.955Zm1.014,22.222q-6.369,0-9.955-3.515t-3.586-9.955q0-6.629,3.314-10.25t9.165-3.621q5.591,0,8.7,3.185t3.114,8.8v3.491H63.435A6.926,6.926,0,0,0,65.251,39.1a6.391,6.391,0,0,0,4.765,1.722,19.782,19.782,0,0,0,4.506-.5,22.545,22.545,0,0,0,4.435-1.581v5.567a16.9,16.9,0,0,1-4.034,1.4A25.434,25.434,0,0,1,69.686,46.177Zm33.356-.472-1.392-3.586h-.189a10.627,10.627,0,0,1-3.739,3.173,12.083,12.083,0,0,1-5.013.885,8.106,8.106,0,0,1-5.98-2.17,8.335,8.335,0,0,1-2.182-6.181,6.96,6.96,0,0,1,2.937-6.192q2.937-1.993,8.858-2.206l4.576-.142V28.131q0-4.01-4.1-4.01a18.7,18.7,0,0,0-7.431,1.911L87,21.172a21.441,21.441,0,0,1,10.1-2.383q5.308,0,8.139,2.312t2.831,7.03V45.705Zm-2.123-12.22-2.784.094a8.914,8.914,0,0,0-4.671,1.132,3.556,3.556,0,0,0-1.533,3.161q0,3.043,3.491,3.043a5.529,5.529,0,0,0,4-1.439,5.054,5.054,0,0,0,1.5-3.822Zm38.9,12.22h-7.195V30.3a7.4,7.4,0,0,0-1.014-4.282,3.691,3.691,0,0,0-3.232-1.427,4.859,4.859,0,0,0-4.364,2.017q-1.345,2.017-1.345,6.688V45.705h-7.195V19.332h5.5l.967,3.373h.4a7.6,7.6,0,0,1,3.314-2.89,11.286,11.286,0,0,1,4.8-.979q4.6,0,6.983,2.489t2.383,7.183Zm25.808-7.832a7.261,7.261,0,0,1-2.819,6.181q-2.819,2.123-8.433,2.123a26.488,26.488,0,0,1-4.907-.389,18.56,18.56,0,0,1-3.8-1.144V38.7a25.082,25.082,0,0,0,4.518,1.581,18.292,18.292,0,0,0,4.423.637q3.916,0,3.916-2.265a1.89,1.89,0,0,0-.519-1.38,7.525,7.525,0,0,0-1.793-1.2q-1.274-.672-3.4-1.569a21.34,21.34,0,0,1-4.47-2.359,6.64,6.64,0,0,1-2.076-2.489,8.215,8.215,0,0,1-.649-3.456,6.265,6.265,0,0,1,2.725-5.438q2.725-1.923,7.726-1.923a21.929,21.929,0,0,1,9.271,2.076l-2.17,5.19q-1.982-.849-3.7-1.392a11.63,11.63,0,0,0-3.515-.543q-3.185,0-3.185,1.722a2.025,2.025,0,0,0,1.026,1.675,27.907,27.907,0,0,0,4.494,2.1A20.877,20.877,0,0,1,162.82,32a6.907,6.907,0,0,1,2.123,2.5A7.684,7.684,0,0,1,165.627,37.874Zm16.725,2.571a15.6,15.6,0,0,0,4.529-.826v5.355a16.149,16.149,0,0,1-6.605,1.2q-4.317,0-6.287-2.182t-1.97-6.546V24.734h-3.444V21.691l3.963-2.406,2.076-5.567h4.6v5.614H186.6v5.4h-7.384V37.449a2.809,2.809,0,0,0,.861,2.265A3.4,3.4,0,0,0,182.352,40.445Zm26.61,5.261L207.57,42.12h-.189a10.627,10.627,0,0,1-3.739,3.173,12.083,12.083,0,0,1-5.013.885,8.106,8.106,0,0,1-5.98-2.17,8.335,8.335,0,0,1-2.182-6.181,6.959,6.959,0,0,1,2.937-6.192q2.937-1.993,8.858-2.206l4.576-.142V28.131q0-4.01-4.1-4.01a18.7,18.7,0,0,0-7.431,1.911l-2.383-4.86a21.441,21.441,0,0,1,10.1-2.383q5.308,0,8.139,2.312t2.831,7.03V45.705Zm-2.123-12.22-2.784.094a8.914,8.914,0,0,0-4.671,1.132,3.556,3.556,0,0,0-1.533,3.161q0,3.043,3.491,3.043a5.529,5.529,0,0,0,4-1.439,5.054,5.054,0,0,0,1.5-3.822ZM232.5,40.445a15.6,15.6,0,0,0,4.529-.826v5.355a16.149,16.149,0,0,1-6.605,1.2q-4.317,0-6.287-2.182t-1.97-6.546V24.734h-3.444V21.691l3.963-2.406,2.076-5.567h4.6v5.614h7.384v5.4h-7.384V37.449a2.809,2.809,0,0,0,.861,2.265A3.4,3.4,0,0,0,232.5,40.445Zm28.261-2.571a7.261,7.261,0,0,1-2.819,6.181q-2.819,2.123-8.433,2.123a26.489,26.489,0,0,1-4.907-.389,18.559,18.559,0,0,1-3.8-1.144V38.7a25.082,25.082,0,0,0,4.518,1.581,18.292,18.292,0,0,0,4.423.637q3.916,0,3.916-2.265a1.89,1.89,0,0,0-.519-1.38,7.524,7.524,0,0,0-1.793-1.2q-1.274-.672-3.4-1.569a21.34,21.34,0,0,1-4.47-2.359,6.64,6.64,0,0,1-2.076-2.489,8.215,8.215,0,0,1-.649-3.456,6.265,6.265,0,0,1,2.725-5.438q2.725-1.923,7.726-1.923a21.929,21.929,0,0,1,9.271,2.076l-2.17,5.19q-1.982-.849-3.7-1.392a11.63,11.63,0,0,0-3.515-.543q-3.185,0-3.185,1.722a2.025,2.025,0,0,0,1.026,1.675,27.907,27.907,0,0,0,4.494,2.1A20.876,20.876,0,0,1,257.959,32a6.907,6.907,0,0,1,2.123,2.5A7.684,7.684,0,0,1,260.766,37.874Zm5.426,5.331a3.514,3.514,0,0,1,.72-2.394A2.609,2.609,0,0,1,268.975,40a2.791,2.791,0,0,1,2.135.814,3.37,3.37,0,0,1,.767,2.394,3.309,3.309,0,0,1-.778,2.359,3.095,3.095,0,0,1-4.116.083A3.23,3.23,0,0,1,266.192,43.2Zm17.339,2.5h-3.916V19.851h3.916Zm-4.246-32.861a2.6,2.6,0,0,1,.661-1.97,2.445,2.445,0,0,1,3.279.012,2.554,2.554,0,0,1,.684,1.958,2.594,2.594,0,0,1-.684,1.97,2.4,2.4,0,0,1-3.279,0A2.649,2.649,0,0,1,279.284,12.844Zm34.866,19.91q0,6.322-3.185,9.872a11.216,11.216,0,0,1-8.8,3.55,11.654,11.654,0,0,1-6.157-1.628,10.743,10.743,0,0,1-4.152-4.671,16.278,16.278,0,0,1-1.463-7.124q0-6.322,3.161-9.849t8.776-3.527a10.937,10.937,0,0,1,8.622,3.609Q314.15,26.6,314.15,32.754Zm-19.7,0q0,4.954,1.982,7.549a7.865,7.865,0,0,0,11.665.012q1.993-2.583,1.993-7.561,0-4.93-1.993-7.49a7,7,0,0,0-5.886-2.56,6.893,6.893,0,0,0-5.8,2.524Q294.453,27.753,294.453,32.754Z" transform="translate(499 85)"/></g></svg>