<svg viewBox="0 0 23.244 17.453" xmlns="http://www.w3.org/2000/svg"><g fill="#3fa7a8"><circle cx="18.799" cy="6.154" r=".559"/><circle cx="15.211" cy="6.154" r=".559"/><circle cx="11.622" cy="6.154" r=".559"/><circle cx="8.034" cy="6.154" r=".559"/><circle cx="4.445" cy="6.154" r=".559"/><circle cx="18.799" cy="9.743" r=".559"/><circle cx="15.211" cy="9.743" r=".559"/><circle cx="11.622" cy="9.743" r=".559"/><circle cx="4.445" cy="9.743" r=".559"/><circle cx="18.799" cy="13.331" r=".559"/><circle cx="15.211" cy="13.331" r=".559"/><circle cx="11.622" cy="13.331" r=".559"/><circle cx="8.034" cy="13.331" r=".559"/><circle cx="4.445" cy="13.331" r=".559"/><path d="m133.083 230.65h-3.373a.48.48 0 0 0 -.48.48v3.37a.48.48 0 0 0 .48.48h3.373a.48.48 0 0 0 .48-.48v-3.37a.48.48 0 0 0 -.48-.48zm-.48 3.373h-2.412v-2.412h2.409v2.412z" transform="translate(-123.363 -223.074)"/><path d="m21.643 64.929h-3.528v-.616a.534.534 0 1 0 -1.067 0v.616h-2.906v-.616a.534.534 0 1 0 -1.067 0v.616h-2.906v-.616a.534.534 0 1 0 -1.067 0v.616h-2.902v-.616a.534.534 0 1 0 -1.067 0v.616h-3.533a1.6 1.6 0 0 0 -1.6 1.601v13.1a1.6 1.6 0 0 0 1.6 1.6h20.043a1.6 1.6 0 0 0 1.6-1.6v-13.1a1.6 1.6 0 0 0 -1.6-1.601zm0 15.236h-20.043a.534.534 0 0 1 -.534-.534v-13.101a.534.534 0 0 1 .534-.53h3.529v.616a.534.534 0 1 0 1.067 0v-.616h2.904v.616a.534.534 0 1 0 1.067 0v-.616h2.905v.616a.534.534 0 0 0 1.067 0v-.616h2.906v.616a.534.534 0 0 0 1.067 0v-.616h3.528a.534.534 0 0 1 .534.534v13.1a.534.534 0 0 1 -.531.531z" transform="translate(0 -63.779)"/></g></svg>