<svg viewBox="0 0 32.299 32.299" xmlns="http://www.w3.org/2000/svg"><path d="m16.149 2.692a13.458 13.458 0 1 1 -13.457 13.457 13.473 13.473 0 0 1 13.457-13.457zm0-2.692a16.149 16.149 0 1 0 16.151 16.149 16.15 16.15 0 0 0 -16.151-16.149zm0 8.075a8.075 8.075 0 0 0 -2.549 15.736c.4.075.533-.175.533-.389v-1.5c-2.246.489-2.714-.951-2.714-.951a2.136 2.136 0 0 0 -.9-1.182c-.732-.5.055-.491.055-.491a1.7 1.7 0 0 1 1.238.833 1.72 1.72 0 0 0 2.35.672 1.716 1.716 0 0 1 .513-1.079c-1.794-.2-3.678-.9-3.678-3.99a3.122 3.122 0 0 1 .832-2.167 2.911 2.911 0 0 1 .078-2.14s.678-.217 2.221.828a7.656 7.656 0 0 1 4.044 0c1.542-1.044 2.218-.828 2.218-.828a2.909 2.909 0 0 1 .081 2.137 3.115 3.115 0 0 1 .83 2.167c0 3.1-1.889 3.784-3.687 3.984a1.925 1.925 0 0 1 .554 1.5v2.215c0 .215.129.467.538.388a8.075 8.075 0 0 0 -2.557-15.743z" fill="#3fa7a8"/></svg>