<svg viewBox="0 0 23.244 20.411" xmlns="http://www.w3.org/2000/svg"><g fill="#3fa7a8"><path d="m22.695 456.607h-22.146a.549.549 0 0 0 0 1.1h22.151a.549.549 0 0 0 0-1.1z" transform="translate(0 -437.294)"/><path d="m51.362 33.793h-3.857a.549.549 0 0 0 -.549.549v3.734h-2.756v-6.326a.549.549 0 0 0 -.549-.549h-3.859a.549.549 0 0 0 -.549.549v10.391h-2.758v-4.668a.549.549 0 0 0 -.549-.549h-3.857a.549.549 0 0 0 -.549.549v10.513a.549.549 0 0 0 .549.549h19.283a.549.549 0 0 0 .549-.549v-13.643a.549.549 0 0 0 -.549-.55zm-15.975 13.644h-2.759v-9.415h2.758v9.414zm3.857 0h-2.759v-4.2h2.758zm3.856-8.812v8.811h-2.759v-15.136h2.759zm3.857 8.811h-2.757v-8.262h2.758zm3.857 0h-2.759v-12.544h2.758v12.545z" transform="translate(-30.099 -31.201)"/></g></svg>