<svg viewBox="0 0 23.244 20.72" xmlns="http://www.w3.org/2000/svg"><g fill="#3fa7a8"><path d="m23 35.981-11.022-8.067a.6.6 0 0 0 -.713 0l-11.018 8.067a.6.6 0 0 0 .714.975l10.66-7.806 10.661 7.806a.6.6 0 0 0 .718-.975z" transform="translate(0 -27.798)"/><path d="m73.966 232.543a.6.6 0 0 0 -.6.6v9.613h-4.835v-5.247a3.02 3.02 0 1 0 -6.04 0v5.247h-4.831v-9.613a.6.6 0 0 0 -1.208 0v10.217a.6.6 0 0 0 .6.6h6.048a.6.6 0 0 0 .6-.557.454.454 0 0 0 0-.047v-5.851a1.812 1.812 0 0 1 3.624 0v5.851a.442.442 0 0 0 0 .046.6.6 0 0 0 .6.557h6.039a.6.6 0 0 0 .6-.6v-10.212a.6.6 0 0 0 -.597-.604z" transform="translate(-53.89 -223.248)"/></g></svg>