<svg xmlns="http://www.w3.org/2000/svg" viewBox="0 0 32.514 32.513"><defs><style>.a{fill:#3fa7a8;}</style></defs><path class="a" d="M16.257,2.709A13.547,13.547,0,1,1,2.709,16.257,13.563,13.563,0,0,1,16.257,2.709Zm0-2.709A16.257,16.257,0,1,0,32.514,16.257,16.257,16.257,0,0,0,16.257,0Zm0,9.594c2.17,0,2.428.008,3.285.047,2.2.1,3.231,1.145,3.333,3.331.038.858.046,1.114.046,3.284s-.008,2.428-.046,3.284c-.1,2.185-1.127,3.232-3.333,3.333-.858.038-1.114.047-3.285.047s-2.428-.008-3.284-.047c-2.208-.1-3.231-1.15-3.333-3.333-.038-.856-.047-1.114-.047-3.284s.009-2.428.047-3.284c.1-2.188,1.127-3.232,3.333-3.333.856-.039,1.114-.046,3.284-.046Zm0-1.466c-2.208,0-2.483.009-3.352.05-2.953.135-4.593,1.773-4.728,4.727-.039.868-.049,1.145-.049,3.352s.009,2.485.049,3.352c.135,2.952,1.775,4.593,4.728,4.728.868.039,1.143.049,3.352.049s2.485-.009,3.353-.049c2.948-.135,4.594-1.773,4.727-4.728.039-.867.049-1.143.049-3.352s-.009-2.483-.049-3.352C24.2,9.956,22.563,8.313,19.61,8.178c-.868-.041-1.145-.05-3.353-.05Zm0,3.954a4.174,4.174,0,1,0,4.174,4.174A4.174,4.174,0,0,0,16.257,12.083Zm0,6.883a2.709,2.709,0,1,1,2.711-2.709A2.709,2.709,0,0,1,16.257,18.966Zm4.338-8.023a.975.975,0,1,0,.977.975A.976.976,0,0,0,20.595,10.943Z"/></svg>