<svg viewBox="0 0 32.514 32.513" xmlns="http://www.w3.org/2000/svg"><path d="m16.257 0a16.257 16.257 0 1 0 16.257 16.257 16.257 16.257 0 0 0 -16.257-16.257zm0 2.709a13.547 13.547 0 1 1 -13.548 13.548 13.563 13.563 0 0 1 13.548-13.548zm-3.287 19.97h-4.842v-.274l1.708-2.071a.826.826 0 0 0 .219-.713v-7.185a.629.629 0 0 0 -.2-.531l-1.522-1.829v-.276h4.713l3.643 7.989 3.2-7.989h4.494v.272l-1.3 1.245a.375.375 0 0 0 -.144.364v9.142a.375.375 0 0 0 .144.364l1.268 1.245v.272h-6.371v-.272l1.313-1.275c.129-.129.129-.167.129-.364v-7.39l-3.651 9.272h-.493l-4.25-9.272v6.214a.855.855 0 0 0 .236.713l1.707 2.071v.274z" fill="#3fa7a8" fill-rule="evenodd"/></svg>