<svg viewBox="0 0 32.514 32.513" xmlns="http://www.w3.org/2000/svg"><path d="m16.257 2.709a13.547 13.547 0 1 1 -13.548 13.548 13.563 13.563 0 0 1 13.548-13.548zm0-2.709a16.257 16.257 0 1 0 16.257 16.257 16.257 16.257 0 0 0 -16.257-16.257zm8.128 16.106a1.8 1.8 0 0 0 -3.047-1.287 9.279 9.279 0 0 0 -4.721-1.386l1.005-3.162 2.72.638v.039a1.477 1.477 0 1 0 .1-.531l-2.932-.686a.252.252 0 0 0 -.3.168l-1.12 3.526a9.39 9.39 0 0 0 -4.943 1.375 1.789 1.789 0 1 0 -2.126 2.849 3.19 3.19 0 0 0 -.058.581c0 2.648 3.257 4.8 7.26 4.8s7.261-2.155 7.261-4.8a3.216 3.216 0 0 0 -.051-.549 1.787 1.787 0 0 0 .952-1.571zm-11.667 1.23a1.071 1.071 0 1 1 1.072 1.064 1.071 1.071 0 0 1 -1.072-1.064zm6.137 3.164a3.535 3.535 0 0 1 -2.59.8h-.019a3.535 3.535 0 0 1 -2.59-.8.249.249 0 0 1 0-.355.253.253 0 0 1 .356 0 3.081 3.081 0 0 0 2.234.652h.019a3.077 3.077 0 0 0 2.234-.652.253.253 0 0 1 .356 0 .249.249 0 0 1 0 .355zm-.127-2.1a1.067 1.067 0 1 1 1.07-1.066 1.069 1.069 0 0 1 -1.07 1.066z" fill="#3fa7a8"/></svg>